<?xml version="1.0" encoding="UTF-8"?>
<svg width="501px" height="88px" viewBox="0 0 501 88" version="1.1" xmlns="http://www.w3.org/2000/svg" xmlns:xlink="http://www.w3.org/1999/xlink">
    <!-- Generator: Sketch 43.2 (39069) - http://www.bohemiancoding.com/sketch -->
    <title>Artboard</title>
    <desc>Created with Sketch.</desc>
    <defs>
        <polygon id="path-1" points="0.06 67.691 0.06 0.401 498.483 0.401 498.483 67.691 0.06 67.691"></polygon>
    </defs>
    <g id="Page-1" stroke="none" stroke-width="1" fill="none" fill-rule="evenodd">
        <g id="Artboard">
            <g id="April-final-copy">
                <path d="M5.453,59.962 C5.453,58.381 6.734,57.1 8.314,57.1 C9.894,57.1 11.176,58.381 11.176,59.962 C11.176,61.542 9.894,62.823 8.314,62.823 C6.734,62.823 5.453,61.542 5.453,59.962" id="Fill-1" fill="#303433"></path>
                <path d="M5.88,22.142 C5.88,20.561 7.161,19.28 8.741,19.28 C10.322,19.28 11.603,20.561 11.603,22.142 C11.603,23.722 10.322,25.003 8.741,25.003 C7.161,25.003 5.88,23.722 5.88,22.142" id="Fill-2" fill="#FFFFFF"></path>
                <path d="M71.096,60.058 C71.096,58.477 72.377,57.196 73.958,57.196 C75.538,57.196 76.819,58.477 76.819,60.058 C76.819,61.638 75.538,62.919 73.958,62.919 C72.377,62.919 71.096,61.638 71.096,60.058" id="Fill-3" fill="#303433"></path>
                <path d="M71.096,21.88 C71.096,20.3 72.377,19.018 73.958,19.018 C75.538,19.018 76.819,20.3 76.819,21.88 C76.819,23.46 75.538,24.742 73.958,24.742 C72.377,24.742 71.096,23.46 71.096,21.88" id="Fill-4" fill="#FFFFFF"></path>
                <path d="M38.549,2.904 C38.549,1.324 39.83,0.042 41.411,0.042 C42.992,0.042 44.273,1.324 44.273,2.904 C44.273,4.484 42.992,5.766 41.411,5.766 C39.83,5.766 38.549,4.484 38.549,2.904" id="Fill-5" fill="#303433"></path>
                <path d="M38.549,79.258 C38.549,77.678 39.83,76.397 41.411,76.397 C42.991,76.397 44.272,77.678 44.272,79.258 C44.272,80.839 42.991,82.121 41.411,82.121 C39.83,82.121 38.549,80.839 38.549,79.258" id="Fill-6" fill="#FFFFFF"></path>
                <path d="M38.549,41.081 C38.549,39.5 39.83,38.22 41.411,38.22 C42.991,38.22 44.272,39.5 44.272,41.081 C44.272,42.662 42.991,43.943 41.411,43.943 C39.83,43.943 38.549,42.662 38.549,41.081" id="Fill-7" fill="#FFFFFF"></path>
                <path d="M38.615,21.88 C38.615,20.3 39.896,19.018 41.476,19.018 C43.057,19.018 44.338,20.3 44.338,21.88 C44.338,23.46 43.057,24.742 41.476,24.742 C39.896,24.742 38.615,23.46 38.615,21.88" id="Fill-8" fill="#303433"></path>
                <path d="M38.549,60.17 C38.549,58.59 39.83,57.309 41.411,57.309 C42.992,57.309 44.273,58.59 44.273,60.17 C44.273,61.75 42.992,63.032 41.411,63.032 C39.83,63.032 38.549,61.75 38.549,60.17" id="Fill-9" fill="#303433"></path>
                <path d="M22.167,31.685 C22.167,30.105 23.448,28.824 25.029,28.824 C26.609,28.824 27.891,30.105 27.891,31.685 C27.891,33.266 26.609,34.547 25.029,34.547 C23.448,34.547 22.167,33.266 22.167,31.685" id="Fill-10" fill="#303433"></path>
                <path d="M54.618,50.45 C54.618,48.87 55.899,47.589 57.48,47.589 C59.06,47.589 60.341,48.87 60.341,50.45 C60.341,52.031 59.06,53.312 57.48,53.312 C55.899,53.312 54.618,52.031 54.618,50.45" id="Fill-11" fill="#303433"></path>
                <path d="M54.919,31.537 C54.919,29.956 56.201,28.675 57.781,28.675 C59.361,28.675 60.643,29.956 60.643,31.537 C60.643,33.118 59.361,34.398 57.781,34.398 C56.201,34.398 54.919,33.118 54.919,31.537" id="Fill-12" fill="#303433"></path>
                <path d="M22.18,50.626 C22.18,49.045 23.461,47.764 25.041,47.764 C26.622,47.764 27.903,49.045 27.903,50.626 C27.903,52.206 26.622,53.487 25.041,53.487 C23.461,53.487 22.18,52.206 22.18,50.626" id="Fill-13" fill="#303433"></path>
                <path d="M54.618,12.624 C54.618,11.043 55.899,9.762 57.48,9.762 C59.06,9.762 60.341,11.043 60.341,12.624 C60.341,14.204 59.06,15.485 57.48,15.485 C55.899,15.485 54.618,14.204 54.618,12.624" id="Fill-14" fill="#303433"></path>
                <path d="M54.618,69.865 C54.618,68.285 55.899,67.003 57.48,67.003 C59.06,67.003 60.341,68.285 60.341,69.865 C60.341,71.446 59.06,72.727 57.48,72.727 C55.899,72.727 54.618,71.446 54.618,69.865" id="Fill-15" fill="#303433"></path>
                <path d="M22.18,12.448 C22.18,10.868 23.461,9.587 25.041,9.587 C26.622,9.587 27.903,10.868 27.903,12.448 C27.903,14.029 26.622,15.31 25.041,15.31 C23.461,15.31 22.18,14.029 22.18,12.448" id="Fill-16" fill="#303433"></path>
                <path d="M22.167,69.865 C22.167,68.285 23.448,67.003 25.029,67.003 C26.609,67.003 27.891,68.285 27.891,69.865 C27.891,71.446 26.609,72.727 25.029,72.727 C23.448,72.727 22.167,71.446 22.167,69.865" id="Fill-17" fill="#303433"></path>
                <path d="M5.583,41.081 C5.583,39.501 6.865,38.22 8.445,38.22 C10.025,38.22 11.307,39.501 11.307,41.081 C11.307,42.662 10.025,43.943 8.445,43.943 C6.865,43.943 5.583,42.662 5.583,41.081" id="Fill-18" fill="#303433"></path>
                <path d="M71.53,40.941 C71.53,39.361 72.811,38.08 74.391,38.08 C75.972,38.08 77.253,39.361 77.253,40.941 C77.253,42.521 75.972,43.803 74.391,43.803 C72.811,43.803 71.53,42.521 71.53,40.941" id="Fill-19" fill="#303433"></path>
                <path d="M111.024,21.217 L107.352,21.217 L107.352,14.947 L131.585,14.947 C134.241,14.947 135.427,16.133 135.427,18.788 L135.427,24.889 L128.704,24.889 L128.704,22.46 C128.704,21.669 128.253,21.217 127.462,21.217 L118.424,21.217 L118.424,31.724 L131.416,31.724 L131.416,37.994 L118.424,37.994 L118.424,47.541 C118.424,48.331 118.876,48.784 119.666,48.784 L128.931,48.784 C129.722,48.784 130.173,48.331 130.173,47.541 L130.173,45.112 L136.895,45.112 L136.895,51.212 C136.895,53.924 135.709,55.054 133.054,55.054 L114.865,55.054 C112.154,55.054 111.024,53.924 111.024,51.212 L111.024,21.217" id="Fill-20" fill="#303433"></path>
                <path d="M144.066,44.321 C144.066,44.321 148.19,49.066 153.782,49.066 C156.832,49.066 159.544,47.428 159.544,44.321 C159.544,37.486 140.677,38.051 140.677,25.567 C140.677,19.071 146.326,14.269 154.065,14.269 C158.753,14.269 165.984,16.472 165.984,22.178 L165.984,25.906 L159.318,25.906 L159.318,24.098 C159.318,22.234 156.663,20.991 154.008,20.991 C150.619,20.991 148.133,22.743 148.133,25.285 C148.133,32.12 167,30.764 167,43.926 C167,50.309 162.086,55.731 153.669,55.731 C144.801,55.731 139.886,49.518 139.886,49.518 L144.066,44.321" id="Fill-21" fill="#303433"></path>
                <path d="M183.831,21.217 L177.674,21.217 C176.883,21.217 176.431,21.669 176.431,22.46 L176.431,24.889 L169.935,24.889 L169.935,18.562 C169.935,15.908 170.839,14.947 173.55,14.947 L201.512,14.947 C204.224,14.947 205.127,15.908 205.127,18.562 L205.127,24.889 L198.631,24.889 L198.631,22.46 C198.631,21.669 198.179,21.217 197.388,21.217 L191.231,21.217 L191.231,55.054 L183.831,55.054 L183.831,21.217" id="Fill-22" fill="#303433"></path>
                <path d="M225.234,38.672 L221.789,28.617 C221.055,26.414 220.207,22.629 220.207,22.629 L220.095,22.629 C220.095,22.629 219.247,26.414 218.513,28.617 L215.067,38.672 L225.234,38.672 Z M201.736,48.784 L202.64,48.784 C203.599,48.784 204.052,48.558 204.391,47.541 L216.309,14.947 L224.049,14.947 L235.911,47.541 C236.25,48.558 236.702,48.784 237.662,48.784 L238.565,48.784 L238.565,55.054 L234.16,55.054 C231.335,55.054 230.318,54.319 229.415,51.777 L226.93,44.773 L213.372,44.773 L210.887,51.777 C209.983,54.319 209.022,55.054 206.198,55.054 L201.736,55.054 L201.736,48.784 L201.736,48.784 Z" id="Fill-23" fill="#303433"></path>
                <path d="M249.07,21.217 L242.913,21.217 C242.122,21.217 241.671,21.669 241.671,22.46 L241.671,24.889 L235.175,24.889 L235.175,18.562 C235.175,15.908 236.078,14.947 238.79,14.947 L266.751,14.947 C269.463,14.947 270.366,15.908 270.366,18.562 L270.366,24.889 L263.87,24.889 L263.87,22.46 C263.87,21.669 263.419,21.217 262.628,21.217 L256.471,21.217 L256.471,55.054 L249.07,55.054 L249.07,21.217" id="Fill-24" fill="#303433"></path>
                <path d="M276.804,21.217 L273.132,21.217 L273.132,14.947 L297.365,14.947 C300.019,14.947 301.206,16.133 301.206,18.788 L301.206,24.889 L294.484,24.889 L294.484,22.46 C294.484,21.669 294.032,21.217 293.241,21.217 L284.203,21.217 L284.203,31.724 L297.195,31.724 L297.195,37.994 L284.203,37.994 L284.203,47.541 C284.203,48.331 284.655,48.784 285.446,48.784 L294.71,48.784 C295.501,48.784 295.953,48.331 295.953,47.541 L295.953,45.112 L302.675,45.112 L302.675,51.212 C302.675,53.924 301.488,55.054 298.834,55.054 L280.644,55.054 C277.932,55.054 276.804,53.924 276.804,51.212 L276.804,21.217" id="Fill-25" fill="#303433"></path>
                <path d="M308.376,47.202 C308.376,47.202 312.387,52.06 318.657,52.06 C323.007,52.06 326.509,49.235 326.509,44.999 C326.509,35.17 306.908,37.147 306.908,24.832 C306.908,19.297 311.709,14.664 319.053,14.664 C322.893,14.664 329.785,16.303 329.785,21.5 L329.785,24.324 L326.057,24.324 L326.057,22.46 C326.057,20.087 322.781,18.336 319.109,18.336 C313.969,18.336 310.974,21.331 310.974,24.72 C310.974,33.927 330.576,31.667 330.576,44.773 C330.576,50.704 326.001,55.731 318.544,55.731 C310.41,55.731 305.947,50.082 305.947,50.082 L308.376,47.202" id="Fill-26" fill="#396C93"></path>
                <path d="M334.641,18.845 L330.969,18.845 L330.969,15.343 L353.678,15.343 C356.106,15.343 357.123,16.359 357.123,18.788 L357.123,22.743 L353.394,22.743 L353.394,20.087 C353.394,19.24 352.943,18.845 352.152,18.845 L338.595,18.845 L338.595,33.306 L353.508,33.306 L353.508,36.808 L338.595,36.808 L338.595,50.309 C338.595,51.156 339.047,51.551 339.838,51.551 L353.79,51.551 C354.581,51.551 355.033,51.156 355.033,50.309 L355.033,47.654 L358.705,47.654 L358.705,51.608 C358.705,54.037 357.688,55.054 355.259,55.054 L338.087,55.054 C335.657,55.054 334.641,54.037 334.641,51.608 L334.641,18.845" id="Fill-27" fill="#396C93"></path>
                <path d="M384.913,38.955 L379.659,24.776 C378.981,22.912 378.135,19.636 378.135,19.636 L378.021,19.636 C378.021,19.636 377.174,22.912 376.496,24.776 L371.3,38.955 L384.913,38.955 Z M360.227,51.551 L360.962,51.551 C361.978,51.551 362.6,51.382 362.995,50.309 L375.988,15.343 L380.224,15.343 L393.217,50.309 C393.612,51.382 394.177,51.551 395.25,51.551 L395.928,51.551 L395.928,55.054 L394.12,55.054 C391.296,55.054 390.449,54.489 389.432,51.777 L385.986,42.4 L370.225,42.4 L366.724,51.777 C365.707,54.489 364.916,55.054 362.092,55.054 L360.227,55.054 L360.227,51.551 L360.227,51.551 Z" id="Fill-28" fill="#396C93"></path>
                <path d="M412.138,34.831 C416.883,34.831 419.82,31.724 419.82,26.753 C419.82,21.839 416.883,18.845 412.194,18.845 L403.325,18.845 L403.325,34.831 L412.138,34.831 Z M399.371,18.845 L395.699,18.845 L395.699,15.343 L412.533,15.343 C419.198,15.343 423.943,19.748 423.943,26.64 C423.943,32.797 420.159,36.413 416.262,37.26 L416.262,37.373 C416.262,37.373 417.052,37.825 417.617,38.955 L423.322,50.252 C423.887,51.438 424.734,51.551 426.146,51.551 L426.937,51.551 L426.937,55.054 L425.186,55.054 C421.967,55.054 421.006,54.658 419.707,52.06 L414.002,40.706 C412.929,38.616 412.194,38.333 409.991,38.333 L403.325,38.333 L403.325,55.054 L399.371,55.054 L399.371,18.845 L399.371,18.845 Z" id="Fill-29" fill="#396C93"></path>
                <path d="M445.746,14.664 C451.394,14.664 460.602,17.094 460.602,23.081 L460.602,26.358 L456.874,26.358 L456.874,24.155 C456.874,20.427 450.434,18.393 445.859,18.393 C437.047,18.393 430.268,25.285 430.268,34.888 C430.268,44.377 436.99,52.003 446.028,52.003 C454.219,52.003 459.02,46.411 459.02,46.411 L461.28,49.292 C461.28,49.292 455.801,55.731 445.972,55.731 C434.335,55.731 426.144,46.467 426.144,34.888 C426.144,23.42 434.561,14.664 445.746,14.664" id="Fill-30" fill="#396C93"></path>
                <path d="M465.908,20.087 C465.908,19.24 465.457,18.845 464.666,18.845 L462.236,18.845 L462.236,15.343 L466.417,15.343 C468.846,15.343 469.862,16.359 469.862,18.788 L469.862,33.419 L492.683,33.419 L492.683,18.788 C492.683,16.359 493.7,15.343 496.073,15.343 L500.309,15.343 L500.309,18.845 L497.881,18.845 C497.09,18.845 496.638,19.24 496.638,20.087 L496.638,55.054 L492.683,55.054 L492.683,36.921 L469.862,36.921 L469.862,55.054 L465.908,55.054 L465.908,20.087" id="Fill-31" fill="#396C93"></path>
                <polyline id="Fill-32" fill="#5D6260" points="112.788 79.671 118.826 79.671 118.826 80.691 111.641 80.691 111.641 69.412 118.635 69.412 118.635 70.431 112.788 70.431 112.788 74.302 118.252 74.302 118.252 75.322 112.788 75.322 112.788 79.671"></polyline>
                <path d="M128.656,71.228 C128.411,70.888 128.098,70.615 127.716,70.408 C127.333,70.2 126.871,70.096 126.33,70.096 C126.054,70.096 125.772,70.139 125.485,70.224 C125.199,70.309 124.938,70.439 124.705,70.615 C124.471,70.789 124.283,71.01 124.139,71.276 C123.996,71.541 123.924,71.855 123.924,72.215 C123.924,72.577 123.993,72.874 124.13,73.108 C124.268,73.341 124.451,73.54 124.679,73.705 C124.907,73.87 125.166,74.005 125.457,74.111 C125.748,74.217 126.053,74.324 126.371,74.43 C126.763,74.557 127.157,74.696 127.554,74.844 C127.952,74.993 128.309,75.187 128.627,75.425 C128.945,75.664 129.204,75.967 129.405,76.333 C129.606,76.7 129.707,77.164 129.707,77.728 C129.707,78.29 129.599,78.777 129.385,79.185 C129.17,79.594 128.891,79.932 128.549,80.197 C128.205,80.462 127.814,80.659 127.373,80.787 C126.932,80.914 126.489,80.978 126.043,80.978 C125.703,80.978 125.363,80.943 125.023,80.874 C124.683,80.805 124.359,80.702 124.052,80.563 C123.744,80.425 123.456,80.25 123.191,80.038 C122.926,79.826 122.692,79.581 122.49,79.305 L123.478,78.572 C123.722,78.976 124.065,79.313 124.506,79.583 C124.946,79.855 125.464,79.99 126.059,79.99 C126.346,79.99 126.638,79.945 126.935,79.855 C127.232,79.764 127.501,79.626 127.74,79.44 C127.979,79.254 128.175,79.026 128.329,78.755 C128.483,78.485 128.56,78.168 128.56,77.807 C128.56,77.414 128.483,77.088 128.329,76.828 C128.175,76.568 127.971,76.35 127.716,76.174 C127.461,75.999 127.169,75.853 126.84,75.736 C126.51,75.619 126.165,75.502 125.804,75.386 C125.432,75.269 125.066,75.136 124.705,74.988 C124.344,74.839 124.02,74.645 123.733,74.406 C123.446,74.167 123.215,73.872 123.04,73.522 C122.865,73.171 122.777,72.741 122.777,72.231 C122.777,71.69 122.886,71.222 123.104,70.83 C123.321,70.437 123.605,70.113 123.956,69.858 C124.307,69.603 124.694,69.417 125.119,69.3 C125.544,69.183 125.963,69.124 126.377,69.124 C127.142,69.124 127.795,69.26 128.337,69.531 C128.879,69.802 129.287,70.123 129.564,70.495 L128.656,71.228" id="Fill-33" fill="#5D6260"></path>
                <polyline id="Fill-34" fill="#5D6260" points="137.625 80.691 136.478 80.691 136.478 70.431 132.703 70.431 132.703 69.412 141.401 69.412 141.401 70.431 137.625 70.431 137.625 80.691"></polyline>
                <path d="M145.829,76.676 L150.8,76.676 L148.315,70.686 L145.829,76.676 Z M144.173,80.691 L142.914,80.691 L147.789,69.412 L148.904,69.412 L153.747,80.691 L152.473,80.691 L151.23,77.728 L145.399,77.728 L144.173,80.691 L144.173,80.691 Z" id="Fill-35" fill="#5D6260"></path>
                <polyline id="Fill-36" fill="#5D6260" points="160.183 80.691 159.036 80.691 159.036 70.431 155.261 70.431 155.261 69.412 163.959 69.412 163.959 70.431 160.183 70.431 160.183 80.691"></polyline>
                <polyline id="Fill-37" fill="#5D6260" points="168.914 79.671 174.952 79.671 174.952 80.691 167.767 80.691 167.767 69.412 174.761 69.412 174.761 70.431 168.914 70.431 168.914 74.302 174.378 74.302 174.378 75.322 168.914 75.322 168.914 79.671"></polyline>
                <path d="M186.709,76.676 L191.68,76.676 L189.195,70.686 L186.709,76.676 Z M185.053,80.691 L183.794,80.691 L188.669,69.412 L189.784,69.412 L194.627,80.691 L193.353,80.691 L192.11,77.728 L186.279,77.728 L185.053,80.691 L185.053,80.691 Z" id="Fill-38" fill="#5D6260"></path>
                <path d="M199.55,79.671 L201.828,79.671 C202.678,79.671 203.418,79.538 204.05,79.273 C204.682,79.007 205.205,78.66 205.62,78.23 C206.034,77.799 206.345,77.308 206.552,76.756 C206.759,76.204 206.862,75.635 206.862,75.051 C206.862,74.467 206.759,73.899 206.552,73.346 C206.345,72.794 206.034,72.303 205.62,71.873 C205.205,71.443 204.682,71.095 204.05,70.83 C203.418,70.564 202.678,70.431 201.828,70.431 L199.55,70.431 L199.55,79.671 Z M198.403,69.412 L202.146,69.412 C202.848,69.412 203.551,69.529 204.258,69.762 C204.964,69.996 205.601,70.349 206.169,70.822 C206.737,71.294 207.197,71.883 207.547,72.589 C207.898,73.296 208.073,74.117 208.073,75.051 C208.073,75.996 207.898,76.82 207.547,77.521 C207.197,78.221 206.737,78.808 206.169,79.281 C205.601,79.753 204.964,80.107 204.258,80.34 C203.551,80.574 202.848,80.691 202.146,80.691 L198.403,80.691 L198.403,69.412 L198.403,69.412 Z" id="Fill-39" fill="#5D6260"></path>
                <polyline id="Fill-40" fill="#5D6260" points="218.157 78.747 218.174 78.747 221.949 69.412 223.701 69.412 223.701 80.691 222.555 80.691 222.555 70.893 222.522 70.893 218.444 80.691 217.839 80.691 213.76 70.893 213.728 70.893 213.728 80.691 212.581 80.691 212.581 69.412 214.334 69.412 218.157 78.747"></polyline>
                <polygon id="Fill-41" fill="#5D6260" points="228.815 80.691 229.963 80.691 229.963 69.412 228.815 69.412"></polygon>
                <polyline id="Fill-42" fill="#5D6260" points="243.074 79.018 243.106 79.018 243.106 69.412 244.253 69.412 244.253 80.691 242.819 80.691 236.256 70.989 236.224 70.989 236.224 80.691 235.076 80.691 235.076 69.412 236.511 69.412 243.074 79.018"></polyline>
                <polygon id="Fill-43" fill="#5D6260" points="249.366 80.691 250.514 80.691 250.514 69.412 249.366 69.412"></polygon>
                <path d="M261.092,71.228 C260.848,70.888 260.534,70.615 260.152,70.408 C259.769,70.2 259.307,70.096 258.766,70.096 C258.489,70.096 258.208,70.139 257.922,70.224 C257.635,70.309 257.374,70.439 257.141,70.615 C256.907,70.789 256.719,71.01 256.575,71.276 C256.432,71.541 256.36,71.855 256.36,72.215 C256.36,72.577 256.429,72.874 256.566,73.108 C256.704,73.341 256.887,73.54 257.115,73.705 C257.343,73.87 257.602,74.005 257.893,74.111 C258.184,74.217 258.489,74.324 258.807,74.43 C259.199,74.557 259.593,74.696 259.99,74.844 C260.388,74.993 260.745,75.187 261.063,75.425 C261.381,75.664 261.641,75.967 261.842,76.333 C262.043,76.7 262.143,77.164 262.143,77.728 C262.143,78.29 262.036,78.777 261.821,79.185 C261.606,79.594 261.327,79.932 260.984,80.197 C260.641,80.462 260.25,80.659 259.809,80.787 C259.368,80.914 258.925,80.978 258.479,80.978 C258.139,80.978 257.8,80.943 257.46,80.874 C257.119,80.805 256.796,80.702 256.487,80.563 C256.18,80.425 255.892,80.25 255.627,80.038 C255.362,79.826 255.128,79.581 254.927,79.305 L255.914,78.572 C256.158,78.976 256.501,79.313 256.941,79.583 C257.383,79.855 257.9,79.99 258.495,79.99 C258.782,79.99 259.074,79.945 259.371,79.855 C259.669,79.764 259.936,79.626 260.176,79.44 C260.415,79.254 260.611,79.026 260.766,78.755 C260.919,78.485 260.996,78.168 260.996,77.807 C260.996,77.414 260.919,77.088 260.766,76.828 C260.611,76.568 260.407,76.35 260.152,76.174 C259.897,75.999 259.604,75.853 259.275,75.736 C258.946,75.619 258.601,75.502 258.24,75.386 C257.868,75.269 257.502,75.136 257.141,74.988 C256.779,74.839 256.456,74.645 256.169,74.406 C255.883,74.167 255.651,73.872 255.476,73.522 C255.301,73.171 255.213,72.741 255.213,72.231 C255.213,71.69 255.322,71.222 255.54,70.83 C255.758,70.437 256.042,70.113 256.392,69.858 C256.742,69.603 257.13,69.417 257.555,69.3 C257.979,69.183 258.399,69.124 258.813,69.124 C259.578,69.124 260.231,69.26 260.773,69.531 C261.314,69.802 261.724,70.123 262,70.495 L261.092,71.228" id="Fill-44" fill="#5D6260"></path>
                <polyline id="Fill-45" fill="#5D6260" points="270.061 80.691 268.914 80.691 268.914 70.431 265.139 70.431 265.139 69.412 273.837 69.412 273.837 70.431 270.061 70.431 270.061 80.691"></polyline>
                <path d="M278.792,74.43 L280.783,74.43 C281.707,74.43 282.419,74.262 282.918,73.928 C283.417,73.593 283.667,73.091 283.667,72.422 C283.667,72.051 283.598,71.738 283.46,71.483 C283.322,71.228 283.131,71.021 282.887,70.861 C282.641,70.702 282.345,70.585 281.994,70.511 C281.643,70.437 281.256,70.399 280.831,70.399 L278.792,70.399 L278.792,74.43 Z M278.792,80.691 L277.644,80.691 L277.644,69.412 L280.959,69.412 C281.511,69.412 282.023,69.464 282.496,69.571 C282.969,69.677 283.378,69.85 283.723,70.088 C284.067,70.328 284.336,70.638 284.527,71.021 C284.719,71.403 284.814,71.871 284.814,72.422 C284.814,72.836 284.739,73.214 284.591,73.553 C284.442,73.894 284.24,74.188 283.985,74.438 C283.73,74.688 283.428,74.886 283.077,75.036 C282.727,75.184 282.345,75.28 281.931,75.322 L285.228,80.691 L283.826,80.691 L280.704,75.417 L278.792,75.417 L278.792,80.691 L278.792,80.691 Z" id="Fill-46" fill="#5D6260"></path>
                <path d="M290.884,76.676 L295.853,76.676 L293.368,70.686 L290.884,76.676 Z M289.226,80.691 L287.968,80.691 L292.843,69.412 L293.958,69.412 L298.801,80.691 L297.526,80.691 L296.284,77.728 L290.453,77.728 L289.226,80.691 L289.226,80.691 Z" id="Fill-47" fill="#5D6260"></path>
                <polyline id="Fill-48" fill="#5D6260" points="305.238 80.691 304.091 80.691 304.091 70.431 300.315 70.431 300.315 69.412 309.014 69.412 309.014 70.431 305.238 70.431 305.238 80.691"></polyline>
                <polygon id="Fill-49" fill="#5D6260" points="312.82 80.691 313.968 80.691 313.968 69.412 312.82 69.412"></polygon>
                <path d="M329.022,75.059 C329.022,74.402 328.916,73.776 328.704,73.182 C328.491,72.588 328.183,72.066 327.78,71.616 C327.376,71.165 326.885,70.807 326.307,70.542 C325.727,70.277 325.077,70.144 324.354,70.144 C323.633,70.144 322.982,70.277 322.403,70.542 C321.824,70.807 321.333,71.165 320.93,71.616 C320.525,72.066 320.218,72.588 320.006,73.182 C319.793,73.776 319.686,74.402 319.686,75.059 C319.686,75.717 319.793,76.342 320.006,76.936 C320.218,77.53 320.525,78.049 320.93,78.495 C321.333,78.94 321.824,79.295 322.403,79.56 C322.982,79.826 323.633,79.958 324.354,79.958 C325.077,79.958 325.727,79.826 326.307,79.56 C326.885,79.295 327.376,78.94 327.78,78.495 C328.183,78.049 328.491,77.53 328.704,76.936 C328.916,76.342 329.022,75.717 329.022,75.059 Z M330.233,75.051 C330.233,75.912 330.085,76.703 329.787,77.425 C329.49,78.147 329.078,78.771 328.553,79.297 C328.027,79.823 327.405,80.235 326.688,80.532 C325.972,80.828 325.193,80.978 324.354,80.978 C323.516,80.978 322.737,80.828 322.02,80.532 C321.304,80.235 320.682,79.823 320.157,79.297 C319.631,78.771 319.22,78.147 318.922,77.425 C318.625,76.703 318.476,75.912 318.476,75.051 C318.476,74.191 318.625,73.4 318.922,72.677 C319.22,71.956 319.631,71.331 320.157,70.805 C320.682,70.28 321.304,69.869 322.02,69.571 C322.737,69.274 323.516,69.124 324.354,69.124 C325.193,69.124 325.972,69.274 326.688,69.571 C327.405,69.869 328.027,70.28 328.553,70.805 C329.078,71.331 329.49,71.956 329.787,72.677 C330.085,73.4 330.233,74.191 330.233,75.051 L330.233,75.051 Z" id="Fill-50" fill="#5D6260"></path>
                <polyline id="Fill-51" fill="#5D6260" points="342.74 79.018 342.772 79.018 342.772 69.412 343.919 69.412 343.919 80.691 342.485 80.691 335.922 70.989 335.89 70.989 335.89 80.691 334.742 80.691 334.742 69.412 336.177 69.412 342.74 79.018"></polyline>
                <path d="M356.281,79.671 L358.559,79.671 C359.409,79.671 360.149,79.538 360.782,79.273 C361.414,79.007 361.936,78.66 362.351,78.23 C362.766,77.799 363.076,77.308 363.283,76.756 C363.49,76.204 363.594,75.635 363.594,75.051 C363.594,74.467 363.49,73.899 363.283,73.346 C363.076,72.794 362.766,72.303 362.351,71.873 C361.936,71.443 361.414,71.095 360.782,70.83 C360.149,70.564 359.409,70.431 358.559,70.431 L356.281,70.431 L356.281,79.671 Z M355.134,69.412 L358.878,69.412 C359.579,69.412 360.282,69.529 360.989,69.762 C361.695,69.996 362.332,70.349 362.9,70.822 C363.469,71.294 363.929,71.883 364.279,72.589 C364.629,73.296 364.805,74.117 364.805,75.051 C364.805,75.996 364.629,76.82 364.279,77.521 C363.929,78.221 363.469,78.808 362.9,79.281 C362.332,79.753 361.695,80.107 360.989,80.34 C360.282,80.574 359.579,80.691 358.878,80.691 L355.134,80.691 L355.134,69.412 L355.134,69.412 Z" id="Fill-52" fill="#5D6260"></path>
                <path d="M373.471,80.978 C372.621,80.978 371.926,80.831 371.384,80.539 C370.843,80.247 370.412,79.878 370.094,79.432 C369.775,78.986 369.555,78.5 369.432,77.975 C369.31,77.449 369.249,76.952 369.249,76.485 L369.249,69.412 L370.396,69.412 L370.396,76.358 C370.396,76.814 370.449,77.257 370.556,77.688 C370.662,78.118 370.834,78.5 371.073,78.834 C371.312,79.169 371.628,79.44 372.021,79.647 C372.414,79.855 372.897,79.958 373.471,79.958 C374.045,79.958 374.527,79.855 374.921,79.647 C375.313,79.44 375.63,79.169 375.869,78.834 C376.107,78.5 376.28,78.118 376.387,77.688 C376.492,77.257 376.546,76.814 376.546,76.358 L376.546,69.412 L377.692,69.412 L377.692,76.485 C377.692,76.952 377.632,77.449 377.51,77.975 C377.388,78.5 377.167,78.986 376.849,79.432 C376.53,79.878 376.097,80.247 375.55,80.539 C375.003,80.831 374.309,80.978 373.471,80.978" id="Fill-53" fill="#5D6260"></path>
                <polyline id="Fill-54" fill="#5D6260" points="383.89 79.671 389.928 79.671 389.928 80.691 382.742 80.691 382.742 69.412 389.736 69.412 389.736 70.431 383.89 70.431 383.89 74.302 389.354 74.302 389.354 75.322 383.89 75.322 383.89 79.671"></polyline>
                <path d="M401.542,79.671 L403.82,79.671 C404.67,79.671 405.41,79.538 406.043,79.273 C406.675,79.007 407.197,78.66 407.612,78.23 C408.026,77.799 408.337,77.308 408.544,76.756 C408.751,76.204 408.854,75.635 408.854,75.051 C408.854,74.467 408.751,73.899 408.544,73.346 C408.337,72.794 408.026,72.303 407.612,71.873 C407.197,71.443 406.675,71.095 406.043,70.83 C405.41,70.564 404.67,70.431 403.82,70.431 L401.542,70.431 L401.542,79.671 Z M400.394,69.412 L404.139,69.412 C404.84,69.412 405.543,69.529 406.25,69.762 C406.956,69.996 407.593,70.349 408.161,70.822 C408.729,71.294 409.189,71.883 409.54,72.589 C409.89,73.296 410.065,74.117 410.065,75.051 C410.065,75.996 409.89,76.82 409.54,77.521 C409.189,78.221 408.729,78.808 408.161,79.281 C407.593,79.753 406.956,80.107 406.25,80.34 C405.543,80.574 404.84,80.691 404.139,80.691 L400.394,80.691 L400.394,69.412 L400.394,69.412 Z" id="Fill-55" fill="#5D6260"></path>
                <polygon id="Fill-56" fill="#5D6260" points="414.573 80.691 415.721 80.691 415.721 69.412 414.573 69.412"></polygon>
                <polyline id="Fill-57" fill="#5D6260" points="421.981 79.671 427.239 79.671 427.239 80.691 420.834 80.691 420.834 69.412 421.981 69.412 421.981 79.671"></polyline>
                <polygon id="Fill-58" fill="#5D6260" points="431.078 80.691 432.225 80.691 432.225 69.412 431.078 69.412"></polygon>
                <path d="M445.894,71.451 C445.501,71.037 445.034,70.715 444.492,70.487 C443.951,70.258 443.329,70.144 442.629,70.144 C441.906,70.144 441.256,70.277 440.677,70.542 C440.098,70.807 439.606,71.165 439.203,71.616 C438.8,72.066 438.489,72.588 438.271,73.182 C438.054,73.776 437.944,74.402 437.944,75.059 C437.944,75.717 438.054,76.342 438.271,76.936 C438.489,77.53 438.8,78.049 439.203,78.495 C439.606,78.94 440.098,79.295 440.677,79.56 C441.256,79.826 441.906,79.958 442.629,79.958 C443.266,79.958 443.849,79.889 444.381,79.75 C444.912,79.613 445.342,79.438 445.672,79.225 L445.672,75.8 L443.043,75.8 L443.043,74.781 L446.818,74.781 L446.818,79.875 C446.202,80.248 445.538,80.525 444.827,80.706 C444.115,80.887 443.377,80.978 442.612,80.978 C441.763,80.978 440.976,80.828 440.255,80.532 C439.532,80.235 438.911,79.823 438.391,79.297 C437.87,78.771 437.464,78.147 437.172,77.425 C436.88,76.703 436.734,75.912 436.734,75.051 C436.734,74.191 436.883,73.4 437.18,72.677 C437.477,71.956 437.889,71.331 438.415,70.805 C438.94,70.28 439.561,69.869 440.278,69.571 C440.995,69.274 441.773,69.124 442.612,69.124 C443.516,69.124 444.302,69.259 444.971,69.53 C445.64,69.799 446.213,70.174 446.691,70.654 L445.894,71.451" id="Fill-59" fill="#5D6260"></path>
                <polyline id="Fill-60" fill="#5D6260" points="453.016 79.671 459.054 79.671 459.054 80.691 451.868 80.691 451.868 69.412 458.862 69.412 458.862 70.431 453.016 70.431 453.016 74.302 458.48 74.302 458.48 75.322 453.016 75.322 453.016 79.671"></polyline>
                <polyline id="Fill-61" fill="#5D6260" points="471.416 79.018 471.448 79.018 471.448 69.412 472.595 69.412 472.595 80.691 471.161 80.691 464.598 70.989 464.565 70.989 464.565 80.691 463.418 80.691 463.418 69.412 464.852 69.412 471.416 79.018"></polyline>
                <path d="M487.203,78.859 C487.013,79.146 486.781,79.416 486.511,79.672 C486.239,79.927 485.927,80.153 485.57,80.346 C485.215,80.54 484.822,80.695 484.391,80.808 C483.962,80.921 483.491,80.978 482.981,80.978 C482.132,80.978 481.346,80.828 480.624,80.532 C479.901,80.235 479.28,79.823 478.76,79.297 C478.239,78.771 477.833,78.147 477.541,77.425 C477.249,76.703 477.103,75.912 477.103,75.051 C477.103,74.191 477.252,73.4 477.549,72.677 C477.847,71.956 478.258,71.331 478.784,70.805 C479.309,70.28 479.931,69.869 480.647,69.571 C481.364,69.274 482.142,69.124 482.981,69.124 C483.395,69.124 483.802,69.168 484.2,69.254 C484.599,69.34 484.974,69.462 485.323,69.619 C485.674,69.775 485.993,69.963 486.279,70.182 C486.566,70.401 486.806,70.649 486.996,70.925 L486.041,71.626 C485.924,71.446 485.766,71.265 485.57,71.084 C485.374,70.904 485.142,70.744 484.878,70.606 C484.612,70.468 484.322,70.357 484.01,70.272 C483.696,70.187 483.358,70.144 482.998,70.144 C482.265,70.144 481.609,70.277 481.03,70.541 C480.451,70.806 479.96,71.164 479.557,71.614 C479.152,72.063 478.845,72.584 478.633,73.177 C478.42,73.77 478.313,74.395 478.313,75.051 C478.313,75.707 478.423,76.332 478.641,76.925 C478.858,77.518 479.169,78.039 479.572,78.489 C479.975,78.939 480.467,79.296 481.046,79.561 C481.625,79.826 482.275,79.958 482.998,79.958 C483.645,79.958 484.262,79.826 484.846,79.56 C485.43,79.294 485.918,78.87 486.311,78.285 L487.203,78.859" id="Fill-62" fill="#5D6260"></path>
                <g id="Group-66" transform="translate(0.000000, 13.000000)">
                    <mask id="mask-2" fill="white">
                        <use xlink:href="#path-1"></use>
                    </mask>
                    <g id="Clip-64"></g>
                    <polyline id="Fill-63" fill="#5D6260" mask="url(#mask-2)" points="492.445 66.671 498.483 66.671 498.483 67.691 491.298 67.691 491.298 56.412 498.292 56.412 498.292 57.431 492.445 57.431 492.445 61.302 497.91 61.302 497.91 62.322 492.445 62.322 492.445 66.671"></polyline>
                    <path d="M8.741,0.401 C3.913,0.401 0,4.314 0,9.142 C0,13.97 3.913,17.883 8.741,17.883 C13.569,17.883 17.482,13.97 17.482,9.142 C17.482,4.314 13.569,0.401 8.741,0.401 Z M8.741,3.457 C11.876,3.457 14.426,6.007 14.426,9.142 C14.426,12.277 11.876,14.827 8.741,14.827 C5.606,14.827 3.056,12.277 3.056,9.142 C3.056,6.007 5.606,3.457 8.741,3.457 L8.741,3.457 Z" id="Fill-65" fill="#396C93" mask="url(#mask-2)"></path>
                </g>
                <path d="M41.411,32.34 C36.583,32.34 32.669,36.254 32.669,41.081 C32.669,45.909 36.583,49.823 41.411,49.823 C46.238,49.823 50.152,45.909 50.152,41.081 C50.152,36.254 46.238,32.34 41.411,32.34 Z M41.411,35.396 C44.545,35.396 47.096,37.947 47.096,41.081 C47.096,44.216 44.545,46.767 41.411,46.767 C38.276,46.767 35.725,44.216 35.725,41.081 C35.725,37.947 38.276,35.396 41.411,35.396 L41.411,35.396 Z" id="Fill-67" fill="#396C93"></path>
                <g id="Group-71" transform="translate(32.000000, 13.000000)" fill="#396C93">
                    <path d="M41.958,0.139 C37.13,0.139 33.217,4.053 33.217,8.88 C33.217,13.708 37.13,17.622 41.958,17.622 C46.785,17.622 50.699,13.708 50.699,8.88 C50.699,4.053 46.785,0.139 41.958,0.139 Z M41.958,3.195 C45.093,3.195 47.643,5.745 47.643,8.88 C47.643,12.015 45.093,14.565 41.958,14.565 C38.823,14.565 36.273,12.015 36.273,8.88 C36.273,5.745 38.823,3.195 41.958,3.195 L41.958,3.195 Z" id="Fill-68"></path>
                    <path d="M9.411,57.518 C4.583,57.518 0.669,61.431 0.669,66.259 C0.669,71.086 4.583,75 9.411,75 C14.238,75 18.152,71.086 18.152,66.259 C18.152,61.431 14.238,57.518 9.411,57.518 Z M9.411,60.574 C12.545,60.574 15.096,63.124 15.096,66.259 C15.096,69.394 12.545,71.944 9.411,71.944 C6.276,71.944 3.725,69.394 3.725,66.259 C3.725,63.124 6.276,60.574 9.411,60.574 L9.411,60.574 Z" id="Fill-70"></path>
                </g>
            </g>
        </g>
    </g>
</svg>